<svg version="1.1" id="Layer_2" xmlns="http://www.w3.org/2000/svg" xmlns:xlink="http://www.w3.org/1999/xlink" x="0px" y="0px"
	 viewBox="0 0 320 816" style="enable-background:new 0 0 320 816;" xml:space="preserve">
<style type="text/css">
	.st0{fill:#D3D3D3;}
</style>
<g>
	<path class="st0" d="M73,22.4V1.9c0-0.6-0.4-1-1-1c-0.6,0-1,0.4-1,1v20.5c0.3,0,0.7,0,1,0C72.3,22.3,72.7,22.4,73,22.4z"/>
	<path class="st0" d="M46.9,29.3c0.6-0.3,1.1-0.7,1.7-1L38.4,10.6c-0.3-0.5-0.9-0.6-1.4-0.4c-0.5,0.3-0.6,0.9-0.4,1.4L46.9,29.3z"/>
	<path class="st0" d="M11.7,35.6c-0.3,0.5-0.1,1.1,0.4,1.4l17.7,10.3c0.3-0.6,0.7-1.2,1-1.7L13,35.3C12.6,35,11.9,35.1,11.7,35.6z"
		/>
	<path class="st0" d="M107.6,9.4c-0.5-0.3-1.1-0.1-1.4,0.4L95.4,28.4c0.6,0.3,1.2,0.7,1.7,1l10.8-18.6
		C108.2,10.3,108.1,9.7,107.6,9.4z"/>
	<path class="st0" d="M132.9,36.6c0.5-0.3,0.6-0.9,0.4-1.4c-0.3-0.5-0.9-0.6-1.4-0.4l-18.6,10.8c0.3,0.6,0.7,1.1,1,1.7L132.9,36.6z"
		/>
	<path class="st0" d="M23.7,70.7c0-0.3,0-0.7,0-1H2.2c-0.6,0-1,0.4-1,1c0,0.6,0.4,1,1,1h21.5C23.7,71.3,23.7,71,23.7,70.7z"/>
	<path class="st0" d="M141.8,69.7h-21.5c0,0.3,0,0.7,0,1s0,0.7,0,1h21.5c0.6,0,1-0.4,1-1C142.8,70.1,142.4,69.7,141.8,69.7z"/>
	<path class="st0" d="M132,104.3l-17.7-10.3c-0.3,0.6-0.7,1.2-1,1.7l17.7,10.3c0.2,0.1,0.3,0.1,0.5,0.1c0.3,0,0.7-0.2,0.9-0.5
		C132.6,105.2,132.4,104.6,132,104.3z"/>
	<path class="st0" d="M11.1,104.8c-0.5,0.3-0.6,0.9-0.4,1.4c0.2,0.3,0.5,0.5,0.9,0.5c0.2,0,0.3,0,0.5-0.1l18.6-10.8
		c-0.3-0.6-0.7-1.1-1-1.7L11.1,104.8z"/>
	<path class="st0" d="M97.1,112c-0.6,0.3-1.1,0.7-1.7,1l10.2,17.7c0.2,0.3,0.5,0.5,0.9,0.5c0.2,0,0.3,0,0.5-0.1
		c0.5-0.3,0.6-0.9,0.4-1.4L97.1,112z"/>
	<path class="st0" d="M36.1,130.6c-0.3,0.5-0.1,1.1,0.4,1.4c0.2,0.1,0.3,0.1,0.5,0.1c0.3,0,0.7-0.2,0.9-0.5L48.6,113
		c-0.6-0.3-1.2-0.7-1.7-1L36.1,130.6z"/>
	<path class="st0" d="M71,119v20.5c0,0.6,0.4,1,1,1c0.6,0,1-0.4,1-1V119c-0.3,0-0.7,0-1,0C71.7,119,71.3,119,71,119z"/>
	<path class="st0" d="M105.9,52.8c0.7-0.4,1-1.3,0.5-2c-0.4-0.7-1.3-1-2-0.5L76,66.6l0,0c-1-1-2.4-1.6-4-1.6c-1.5,0-2.9,0.6-4,1.6
		L47.7,54.8c-0.7-0.4-1.6-0.2-2.1,0.5c-0.4,0.7-0.2,1.6,0.5,2.1l20.3,11.8c-0.1,0.5-0.2,0.9-0.2,1.4c0,3.1,2.5,5.7,5.7,5.7
		c3.1,0,5.7-2.5,5.7-5.7c0-0.5-0.1-1-0.2-1.4L105.9,52.8z M76.5,67.2C76.5,67.2,76.5,67.2,76.5,67.2C76.5,67.2,76.5,67.2,76.5,67.2z
		 M76.9,67.8C76.9,67.8,76.9,67.8,76.9,67.8C76.9,67.8,76.9,67.8,76.9,67.8z M67.1,67.8C67.1,67.8,67.1,67.8,67.1,67.8
		C67.1,67.8,67.1,67.8,67.1,67.8z M67.5,67.2C67.5,67.2,67.5,67.2,67.5,67.2C67.5,67.2,67.5,67.2,67.5,67.2z M72,73.3
		c-1.5,0-2.7-1.2-2.7-2.7S70.5,68,72,68c1.5,0,2.7,1.2,2.7,2.7S73.5,73.3,72,73.3z"/>
</g>
</svg>
