
<svg version="1.1" id="Layer_1" xmlns="http://www.w3.org/2000/svg" xmlns:xlink="http://www.w3.org/1999/xlink" x="0px" y="0px"
	 viewBox="0 0 94.2 88.6" style="enable-background:new 0 0 94.2 88.6;" xml:space="preserve">
<g>
	<g id="XMLID_2_">
		<g>
			<path style="fill:#826550;" d="M87.2,22.4c4.4,7.2,7,15.6,7,24.7c0,15.3-7.3,28.8-18.5,37.4c-0.9-1.1-2-2-3.1-2.7
				C83.2,74,90.2,61.3,90.2,47.1c0-7-1.7-13.6-4.7-19.4C86.1,25.9,86.6,24.2,87.2,22.4z"/>
			<path style="fill:#826550;" d="M68.4,5.1c-0.9,1-1.7,2.1-2.4,3.3C60.3,5.6,53.9,4,47.1,4C23.3,4,4,23.3,4,47.1
				c0,8.6,2.5,16.6,6.9,23.3c-0.4,0-0.9,0-1.3,0c-1,0-2.2,0-3.3,0.1C2.3,63.6,0,55.6,0,47.1C0,21.1,21.1,0,47.1,0
				C54.8,0,62,1.9,68.4,5.1z"/>
		</g>
		<g>
		</g>
	</g>
</g>
<g id="XMLID_1_">
	<g>
		<path style="fill:#826550;" d="M85.7,9c0,0.9,0,1.8,0,2.6c-6.4,16.6-10.2,35.8-18.4,50.6c-3.6,1-8.6,0.6-13.2,0.7
			c-1.5,5-0.2,12.9-0.7,19.1c6.6,1.9,15.8,1.3,19.1,6.6c-14.9,0-29.8,0-44.7,0c3.6-4.7,11.3-5.4,19.1-5.9c0-6.6,0-13.2,0-19.7
			c-3.6-1.4-9.8-0.3-14.5-0.7C29,69.5,27.2,78.1,20.6,82c-6.2-0.8-15.9,1.9-19.1-2c0-0.9,0-1.8,0-2.6c3.4-3.6,12.7-1.4,19.1-2
			c3.6-3,6-7.2,7.2-12.5c-5-1.1-7.1-5.1-6.6-11.8c1.9-2.7,5.3-3.9,9.9-3.9C31.7,32,48.2,27.9,64,32.1c2.5-11.5,3.9-24.2,14.5-27.6
			c0.2,0,0.4,0,0.7,0C81.9,5.3,85,6,85.7,9z M64.6,51.8c-1.8-3-1.2-8.4-1.3-13.1c-10.3-3.1-25-3.2-25.7,8.5
			C47.6,47.4,57.6,50.9,64.6,51.8z"/>
	</g>
	<g>
	</g>
</g>
</svg>
