
<svg version="1.1" id="Layer_1" xmlns="http://www.w3.org/2000/svg" xmlns:xlink="http://www.w3.org/1999/xlink" x="0px" y="0px"
	 viewBox="0 0 94.2 92" style="enable-background:new 0 0 94.2 92;" xml:space="preserve">
<g id="XMLID_3_">
	<g>
		<ellipse style="fill:#826550;" cx="47.1" cy="17.3" rx="9.1" ry="9.1"/>
	</g>
	<g>
	</g>
</g>
<g id="XMLID_2_">
	<g>
		<path style="fill:#826550;" d="M70.3,84.7v4.5c0,1.6-1.3,2.8-2.8,2.8H26.7c-1.6,0-2.8-1.3-2.8-2.8v-4.5c0-1.5,1.3-2.8,2.8-2.8h0.8
			V36.5h-0.8c-1.6,0-2.8-1.3-2.8-2.8v-4.5c0-1.5,1.3-2.8,2.8-2.8h20.4h20.4c1.6,0,2.8,1.3,2.8,2.8v4.5c0,1.5-1.3,2.8-2.8,2.8h-0.8
			v45.4h0.8C69,81.9,70.3,83.2,70.3,84.7z M60.5,81.9V68.4L47,81.9H60.5z M60.5,53.2V38.1L33.7,64.9V80L60.5,53.2z M33.7,49.7
			l13.2-13.2H33.7V49.7z"/>
	</g>
	<g>
	</g>
</g>
<g id="XMLID_1_">
	<g>
		<path style="fill:#826550;" d="M94.2,47.1c0,15.4-7.4,29.1-18.9,37.7v-0.1c0-1.5-0.4-2.9-1.2-4.1c9.8-7.9,16.1-20,16.1-33.5
			C90.2,23.3,70.8,4,47.1,4C23.3,4,4,23.3,4,47.1c0,13.5,6.3,25.6,16.1,33.5c-0.7,1.2-1.2,2.6-1.2,4.1v0.1C7.4,76.2,0,62.5,0,47.1
			C0,21.1,21.1,0,47.1,0S94.2,21.1,94.2,47.1z"/>
	</g>
	<g>
	</g>
</g>
</svg>
