
<svg version="1.1" id="Layer_1" xmlns="http://www.w3.org/2000/svg" xmlns:xlink="http://www.w3.org/1999/xlink" x="0px" y="0px"
	 viewBox="0 0 94.9 94.2" style="enable-background:new 0 0 94.9 94.2;" xml:space="preserve">
<g>
	<g>
		<g id="XMLID_5_">
			<g>
				<path style="fill:#826550;" d="M90.3,28.4c-1.4,0.2-2.7,0.5-4.1,0.7c-1.7-3.6-3.8-7-6.4-10c0.7-1.3,1.3-2.5,2-3.8
					C85.3,19.1,88.2,23.6,90.3,28.4z"/>
			</g>
			<g>
			</g>
		</g>
	</g>
	<g>
		<g id="XMLID_6_">
			<g>
				<path style="fill:#826550;" d="M93.8,40.9c0.3,2,0.4,4.1,0.4,6.2c0,26-21.1,47.1-47.1,47.1c-0.9,0-1.7,0-2.5-0.1
					c0.3-0.7,0.4-1.4,0.4-2.2c0-0.7-0.1-1.3-0.2-1.8c0.8,0,1.5,0.1,2.3,0.1c23.8,0,43.1-19.3,43.1-43.1c0-1.2-0.1-2.4-0.2-3.5
					C91.3,42.8,92.6,41.9,93.8,40.9z"/>
			</g>
			<g>
			</g>
		</g>
	</g>
	<g>
		<g id="XMLID_1_">
			<g>
				<path style="fill:#826550;" d="M72,7.2c-1.2,0.9-2.3,1.8-3.4,2.6C62.3,6.1,54.9,4,47.1,4C23.3,4,4,23.3,4,47.1
					c0,17.4,10.3,32.3,25.1,39.1c0,1.5,0.2,3.1,0.6,4.6C12.3,83.9,0,66.9,0,47.1C0,21.1,21.1,0,47.1,0C56.2,0,64.8,2.6,72,7.2z"/>
			</g>
			<g>
			</g>
		</g>
	</g>
	<g>
		<g id="XMLID_3_">
			<g>
				<path style="fill:#826550;" d="M47.1,46.1c-0.9,0-1.7,0.5-2.1,1.1l-1.7-0.8c1.8-3.7,3.4-7.5,5.4-10.4c6.5-9.4,21-20.8,28.4-26.4
					c0.7,0,1.3,0,2,0c-8.3,16.5-17.4,32.2-30.4,44l-1.6-2.3c1.4,0,2.6-1.2,2.6-2.6C49.7,47.2,48.5,46.1,47.1,46.1z"/>
				<path style="fill:#826550;" d="M44.5,48.7c0,1.4,1.2,2.6,2.6,2.6l1.6,2.3c-0.9,0.8-1.8,1.5-2.7,2.3c2.8,4.3,6.4,4.1,7.3,9.3
					c1.8,10.2-6.8,17.1-14.5,19.8c-1.4,4,3.3,6.9,0,8.6c-5.2-0.2-5.3-7.9-4-12.6c-8.5-9.8,2.1-23.3,6.6-31.1
					c0.7-1.1,1.3-2.3,1.9-3.5l1.7,0.8C44.7,47.6,44.5,48.1,44.5,48.7z M36.8,75c5.7,6.5,12.2-1.8,11.9-9.3C43.8,58,34.9,66,36.8,75z
					"/>
			</g>
			<g>
			</g>
		</g>
	</g>
	<g>
		<g id="XMLID_4_">
			<g>
				<path style="fill:#826550;" d="M67.2,37.3c9.6-1.2,18.3-3.2,27.8-4.6c-8.4,10.8-25,13.3-39,18.5C60.2,47,65.1,43.6,67.2,37.3z"
					/>
			</g>
			<g>
			</g>
		</g>
	</g>
	<g>
		<g id="XMLID_2_">
			<g>
				<path style="fill:#826550;" d="M36.1,38c3.9,5.9,1.8,11-2,15.9C20.8,56,8.1,52.2,12.3,40C15.2,31.6,31.2,30.5,36.1,38z
					 M17.6,47.2c5.4,2.8,16.7,2.3,14.5-5.3C30.5,36.2,12.5,36.4,17.6,47.2z"/>
			</g>
			<g>
			</g>
		</g>
	</g>
</g>
</svg>
