<svg xmlns="http://www.w3.org/2000/svg" xmlns:xlink="http://www.w3.org/1999/xlink" version="1.1" id="socialIcon" x="0px" y="0px" viewBox="0 0 25 25" xml:space="preserve">
<path fill="#ffffff" d="M4.1,2h9.5c3.1,0,5.8,1.5,5.8,4.6c0,2.6-0.9,3.6-2.9,4.7c0.2,0.1,1.3,0.5,1.6,0.6  c0.6,0.3,0.9,0.6,1.3,1c1.1,1.1,1.3,2.1,1.3,3.9c0,4.1-3.9,6.1-7.7,6.1H4.1V2L4.1,2z M9.3,7.5v2.7c2.5,0,4.8,0.3,4.8-2.3  c0-2.5-2.6-2.1-4.8-2.1V7.5L9.3,7.5z M9.3,19.1c2.7,0,6,0.4,6.1-2.6c0.1-3.2-3.4-2.6-6.1-2.6L9.3,19.1L9.3,19.1z"/>
</svg>